# xmcd CD database file
#
# Track frame offsets:
#	150
#	13691
#	24101
#	36425
#	47262
#	59588
#	73183
#	85509
#	99385
#	110835
#	123314
#	133712
#	147135
#	159016
#	168188
#	180400
#	190939
#	200928
#	213411
#	224640
#	237483
#	259477
#	268204
#	280144
#	289045
#	300589
#	310869
#	322723
#	333001
#
# Disc length: 4543 seconds
#
# Revision: 0
# Processed by: cddbd v1.5.2PL0 Copyright (c) Steve Scherf et al.
# Submitted via: CDex 1.51
#
DISCID=a711bd1d
DTITLE=Buddy Guy, Otis Rush, Ike Turner - Cobra - Snakebite II [CD2)
DYEAR=2009
DGENRE=Blues
TTITLE0=Highway
TTITLE1=Have A Good Time
TTITLE2=Just Whaling
TTITLE3=Killer Diller
TTITLE4=Screaming And Crying
TTITLE5=Row Your Boat
TTITLE6=21 Days In Jail (Take 2)
TTITLE7=Steady Rollin' Man
TTITLE8=Can This Be Mine
TTITLE9=When I Find My Baby
TTITLE10=I Don't Care Who Knows
TTITLE11=I Hope You Come Back Home
TTITLE12=Fishin' In My Pond
TTITLE13=I Wonder What's The Matter
TTITLE14=Bluesy
TTITLE15=It's You Baby
TTITLE16=You Don't Treat Me Right
TTITLE17=Everything Gonna Be Alright
TTITLE18=Changing Love
TTITLE19=Maybe Blues
TTITLE20=Take Your Hand Out Of My Pocket
TTITLE21=Box Top
TTITLE22=Meet Me Halfway
TTITLE23=Ain't Gonna Cry
TTITLE24=Little Girl
TTITLE25=Need My Baby
TTITLE26=Hidden Charms
TTITLE27=Best Gal I Ever Had
TTITLE28=Eli Tocano Blues
EXTD=YEAR: 2009
EXTT0=
EXTT1=
EXTT2=
EXTT3=
EXTT4=
EXTT5=
EXTT6=
EXTT7=
EXTT8=
EXTT9=
EXTT10=
EXTT11=
EXTT12=
EXTT13=
EXTT14=
EXTT15=
EXTT16=
EXTT17=
EXTT18=
EXTT19=
EXTT20=
EXTT21=
EXTT22=
EXTT23=
EXTT24=
EXTT25=
EXTT26=
EXTT27=
EXTT28=
PLAYORDER=
